<svg width="32" height="32" viewBox="0 0 32 32" fill="none" xmlns="http://www.w3.org/2000/svg">
<path d="M28 2.66667H24V0H21.3333V2.66667H10.6667V0H8V2.66667H4C2.93913 2.66667 1.92172 3.08809 1.17157 3.83824C0.421427 4.58839 0 5.6058 0 6.66667L0 32H32V6.66667C32 5.6058 31.5786 4.58839 30.8284 3.83824C30.0783 3.08809 29.0609 2.66667 28 2.66667ZM2.66667 6.66667C2.66667 6.31304 2.80714 5.97391 3.05719 5.72386C3.30724 5.47381 3.64638 5.33333 4 5.33333H28C28.3536 5.33333 28.6928 5.47381 28.9428 5.72386C29.1929 5.97391 29.3333 6.31304 29.3333 6.66667V10.6667H2.66667V6.66667ZM2.66667 29.3333V13.3333H29.3333V29.3333H2.66667Z" fill="#4B5563"/>
<path d="M22.6667 17.3335H20V20.0002H22.6667V17.3335Z" fill="#4B5563"/>
<path d="M17.3337 17.3335H14.667V20.0002H17.3337V17.3335Z" fill="#4B5563"/>
<path d="M11.9997 17.3335H9.33301V20.0002H11.9997V17.3335Z" fill="#4B5563"/>
<path d="M22.6667 22.6669H20V25.3336H22.6667V22.6669Z" fill="#4B5563"/>
<path d="M17.3337 22.6669H14.667V25.3336H17.3337V22.6669Z" fill="#4B5563"/>
<path d="M11.9997 22.6669H9.33301V25.3336H11.9997V22.6669Z" fill="#4B5563"/>
</svg>
