<svg width="24" height="25" viewBox="0 0 24 25" fill="none" xmlns="http://www.w3.org/2000/svg">
<g id="fi-rs-doctor" clip-path="url(#clip0_133_5702)">
<path id="Vector" d="M21 5.29956H16V1.29956H8V5.29956H3C2.20435 5.29956 1.44129 5.61563 0.87868 6.17824C0.31607 6.74085 0 7.50391 0 8.29956L0 23.2996H24V8.29956C24 7.50391 23.6839 6.74085 23.1213 6.17824C22.5587 5.61563 21.7956 5.29956 21 5.29956ZM10 3.29956H14V5.29956H10V3.29956ZM22 21.2996H2V8.29956C2 8.03434 2.10536 7.77999 2.29289 7.59245C2.48043 7.40492 2.73478 7.29956 3 7.29956H21C21.2652 7.29956 21.5196 7.40492 21.7071 7.59245C21.8946 7.77999 22 8.03434 22 8.29956V21.2996ZM13 13.2996H16V15.2996H13V18.2996H11V15.2996H8V13.2996H11V10.2996H13V13.2996Z" fill="#353C46"/>
</g>
<defs>
<clipPath id="clip0_133_5702">
<rect width="24" height="24" fill="white" transform="translate(0 0.299805)"/>
</clipPath>
</defs>
</svg>
